<svg fill="#006E90" xmlns="http://www.w3.org/2000/svg" xmlns:xlink="http://www.w3.org/1999/xlink" version="1.1" x="0px" y="0px" viewBox="0 0 80 80" enable-background="new 0 0 80 80" xml:space="preserve"><path fill="#006E90" d="M40,20.933c0,0-8.25,12.4-25,24.419v13.716c0,0,18.75-14.9,25.042-24.692C46.5,44.25,65,59.067,65,59.067  V45.352C48.25,33,40,20.933,40,20.933z M63,54.814C57.452,50.13,46.313,40.309,41.715,33.28l-1.688-2.582l-1.667,2.596  C33.876,40.271,22.593,50.148,17,54.836v-8.463c12.296-8.978,19.889-17.974,23.019-22.066C43.162,28.332,50.741,37.179,63,46.357  V54.814z"></path></svg>