<svg xmlns="http://www.w3.org/2000/svg" xmlns:xlink="http://www.w3.org/1999/xlink" version="1.1" x="0px" y="0px" viewBox="0 0 70 70" enable-background="new 0 0 70 70" xml:space="preserve"><path d="M53.2850037,33.8300781c0,2.3900146-1.0700073,4.5198975-2.7399902,5.9699707  c-0.3500366,6.8499756-5.2300415,12.7000732-11.8699951,14.3099365c-0.3000488,1.5800781-1.8300171,2.7800293-3.6800537,2.7800293  c-2.0599976,0-3.7399902-1.4899902-3.7399902-3.3299561s1.6799927-3.3399658,3.7399902-3.3399658  c1.4800415,0,2.7600098,0.7900391,3.3600464,1.9099121c5.25-1.3299561,9.1999512-5.7099609,10.039978-11  c-0.9299927,0.380127-1.9400024,0.5900879-3,0.5900879c-0.5499878,0-1-0.4499512-1-1V26.9500732c0-0.5600586,0.4500122-1,1-1  c1.0599976,0,2.0700073,0.2199707,3,0.5999756c-1.039978-6.4500732-6.6900024-11.4400635-13.3900146-11.4400635  c-6.7199707,0-12.3599854,4.9899902-13.3999634,11.4400635c0.9299927-0.3800049,1.9400024-0.5999756,3-0.5999756  c0.5499878,0,1,0.4399414,1,1v13.7700195c0,0.5500488-0.4500122,1-1,1c-1.8500366,0-3.5500488-0.6400146-4.9000244-1.7099609  c-1.8200073-1.4500732-2.9899902-3.6800537-2.9899902-6.1800537c0-2.3800049,1.0700073-4.5100098,2.7399902-5.960083  c0.4299927-8.1799316,7.289978-14.7600098,15.539978-14.7600098c8.2600098,0,15.1199951,6.5800781,15.5400391,14.7600098  C52.2149963,29.3200684,53.2850037,31.4500732,53.2850037,33.8300781z"/></svg>