<svg xmlns="http://www.w3.org/2000/svg" xmlns:xlink="http://www.w3.org/1999/xlink" version="1.1" x="0px" y="0px" viewBox="0 0 70 70" style="enable-background:new 0 0 70 70;" xml:space="preserve"><g><ellipse cx="41.4" cy="51.9" rx="1.8" ry="1.8"/><ellipse cx="58.6" cy="51.9" rx="1.8" ry="1.8"/><path d="M62.1,45.3C62.1,45.3,62.1,45.3,62.1,45.3L60.5,40c-0.6-2.1-2.5-3.4-4.6-3.4H44c-2.1,0-3.9,1.4-4.6,3.4l-1.6,5.3   c0,0,0,0,0,0C35.6,46.6,34,49,34,51.9v4c0,2,1.6,3.6,3.6,3.6h0.2c0,0,0,0,0,0.1v2.6c0,0.7,0.6,1.3,1.3,1.3s1.3-0.6,1.3-1.3v-2.6   c0,0,0,0,0-0.1h19.4c0,0,0,0,0,0.1v2.6c0,0.7,0.6,1.3,1.3,1.3s1.3-0.6,1.3-1.3v-2.6c0,0,0,0,0-0.1h0.2c2,0,3.6-1.6,3.6-3.6v-4   C66,49,64.4,46.6,62.1,45.3z M40.8,44.4l1.1-3.7c0.3-1,1.2-1.7,2.2-1.7H56c1,0,1.9,0.7,2.2,1.7l1.1,3.7h-0.7h-17H40.8z M63.5,55.9   c0,0.6-0.5,1.1-1.1,1.1H37.6c-0.6,0-1.1-0.5-1.1-1.1v-4c0-2.8,2.2-5,5-5h17c2.7,0,5,2.2,5,5V55.9z"/></g></svg>