<svg fill="#006E90" xmlns="http://www.w3.org/2000/svg" xmlns:xlink="http://www.w3.org/1999/xlink" version="1.1" x="0px" y="0px" viewBox="0 0 80 80" enable-background="new 0 0 80 80" xml:space="preserve"><g><path fill="#006E90" d="M40,12.433c0,0-8.25,12.4-25,24.419v13.716c0,0,18.75-14.9,25.041-24.692C46.5,35.75,65,50.567,65,50.567   V36.852C48.25,24.5,40,12.433,40,12.433z M63,46.314C57.452,41.63,46.313,31.809,41.715,24.78l-1.689-2.582l-1.667,2.596   C33.876,31.771,22.593,41.648,17,46.336v-8.463c12.296-8.978,19.889-17.974,23.019-22.066C43.162,19.832,50.741,28.679,63,37.857   V46.314z"></path><path fill="#006E90" d="M40,29.433c0,0-8.25,12.4-25,24.419v13.716c0,0,18.75-14.9,25.041-24.692C46.5,52.75,65,67.567,65,67.567   V53.852C48.25,41.5,40,29.433,40,29.433z M63,63.314C57.452,58.63,46.313,48.809,41.715,41.78l-1.689-2.582l-1.667,2.596   C33.876,48.771,22.593,58.648,17,63.336v-8.463c12.296-8.978,19.889-17.974,23.019-22.066C43.162,36.832,50.741,45.679,63,54.857   V63.314z"></path></g></svg>