<svg xmlns="http://www.w3.org/2000/svg" xmlns:xlink="http://www.w3.org/1999/xlink" version="1.1" x="0px" y="0px" viewBox="0 0 24 24" style="enable-background:new 0 0 24 24;" xml:space="preserve"><g><path d="M12.383,1.283c-0.169-0.253-0.588-0.253-0.757,0C10.941,2.31,5.589,4.719,3.634,4.719C3.383,4.719,3,4.923,3,5.174v8.642   c0,4.447,8.241,8.945,8.698,9.074c0.04,0.011,0.171,0.017,0.213,0.017s0.307-0.006,0.347-0.017C12.637,22.783,21,17.951,21,14.271   V5.174c0-0.251-0.383-0.455-0.634-0.455C18.175,4.719,13.048,2.279,12.383,1.283z M20,14.271c0,2.746-6.837,7.078-7.999,7.684   C10.866,21.377,4,17.352,4,13.816V5.599c3-0.257,6.56-2.097,8.003-3.393C13.411,3.488,17,5.364,20,5.603V14.271z"></path></g></svg>