<svg fill="#006E90" xmlns="http://www.w3.org/2000/svg" xmlns:xlink="http://www.w3.org/1999/xlink" version="1.1" x="0px" y="0px" viewBox="0 0 80 80" enable-background="new 0 0 80 80" xml:space="preserve"><path fill="#006E90" d="M72.5,32.703l-24.465-0.499L40,9.091l-8.035,23.113L7.5,32.703L27,47.487l-7.087,23.422L40,56.932  l20.087,13.978L53,47.487L72.5,32.703z M55.611,64.749L41.428,54.88L40,53.886l-1.428,0.994l-14.183,9.869l5.004-16.538l0.503-1.665  l-1.386-1.051L14.741,35.056l17.274-0.353l1.739-0.036l0.571-1.643L40,16.704l5.674,16.321l0.571,1.643l1.739,0.036l17.274,0.353  l-13.77,10.439l-1.386,1.051l0.504,1.665L55.611,64.749z"></path></svg>