<svg fill="#006E90" xmlns="http://www.w3.org/2000/svg" xmlns:xlink="http://www.w3.org/1999/xlink" version="1.1" x="0px" y="0px" viewBox="0 0 80 80" enable-background="new 0 0 80 80" xml:space="preserve"><g><path fill="#006E90" d="M40,3.716c0,0-8.25,12.4-25,24.419v13.716c0,0,18.75-14.901,25.041-24.693C46.5,27.034,65,41.852,65,41.852   V28.135C48.25,15.784,40,3.716,40,3.716z M63,37.599c-5.548-4.684-16.686-14.503-21.285-21.535l-1.689-2.582l-1.667,2.596   C33.876,23.055,22.593,32.932,17,37.62v-8.463c12.296-8.978,19.889-17.974,23.019-22.066C43.162,11.115,50.741,19.962,63,29.141   V37.599z"></path><path fill="#006E90" d="M40,20.716c0,0-8.25,12.4-25,24.418v13.717c0,0,18.75-14.9,25.041-24.693C46.5,44.033,65,58.852,65,58.852   V45.135C48.25,32.784,40,20.716,40,20.716z M63,54.599c-5.548-4.685-16.688-14.506-21.285-21.535l-1.689-2.582l-1.667,2.596   C33.876,40.055,22.593,49.933,17,54.62v-8.464c12.296-8.977,19.889-17.974,23.019-22.065C43.162,28.115,50.741,36.962,63,46.141   V54.599z"></path><path fill="#006E90" d="M40,38.149c0,0-8.25,12.4-25,24.419v13.715c0,0,18.75-14.9,25.041-24.691C46.5,61.467,65,76.283,65,76.283   V62.568C48.25,50.217,40,38.149,40,38.149z M63,72.031c-5.547-4.684-16.686-14.502-21.285-21.534l-1.689-2.582l-1.667,2.596   C33.876,57.487,22.593,67.364,17,72.052V63.59c12.296-8.979,19.888-17.975,23.019-22.066C43.161,45.548,50.741,54.396,63,63.574   V72.031z"></path></g></svg>